#!OML:ASF H:\Terrain\Patient Classification 1\Walking\liu\liu.ASF
:FULLY-SPECIFIED
:DEGREES
27
root 7.81876 15.7887 -33.1343 7.46859 -7.06188 -7.15462
lowerback -7.43755 1.70498 4.17445
upperback -1.196 1.82738 3.20256
thorax 2.95827 0.935382 1.15017
lowerneck -19.7485 -4.68328 -11.7282
upperneck 15.8048 -6.14693 15.0036
head 9.08035 -2.0734 6.32779
rclavicle 3.21472e-015 -5.76476e-015
rhumerus -43.1759 19.9334 -91.8226
rradius 62.0682
rwrist -32.7143
rhand -30.2718 -30.2173
rfingers 7.12502
rthumb -3.57996 -60.1669
lclavicle 3.21472e-015 -5.76476e-015
lhumerus -42.1697 -9.117 90.6634
lradius 27.323
lwrist 4.72755
lhand -9.11676 -22.4578
lfingers 7.12502
lthumb 16.834 6.8325
rfemur 16.1594 7.06752 31.6728
rtibia -9.54166e-015
rfoot -11.62 -0.921632
rtoes -17.8551
lfemur -40.5958 1.9656 -6.44928
ltibia 19.2998
lfoot -14.8346 14.5244
ltoes -14.0206
28
root 7.8401 15.7587 -32.9757 7.62766 -7.35165 -7.36345
lowerback -7.66373 1.8477 4.28124
upperback -1.26769 1.99277 3.30682
thorax 3.01193 1.01793 1.22191
lowerneck -19.5989 -4.83063 -11.5839
upperneck 15.7545 -6.32184 14.6174
head 9.04142 -2.19091 6.13278
rclavicle 1.53965e-014 1.27222e-014
rhumerus -43.5164 19.7558 -92.0115
rradius 61.9459
rwrist -31.9622
rhand -30.2738 -30.5658
rfingers 7.12502
rthumb -3.5819 -60.5154
lclavicle 1.53965e-014 1.27222e-014
lhumerus -42.5113 -9.37442 90.9694
lradius 27.1373
lwrist 4.74288
lhand -9.31754 -22.1336
lfingers 7.12502
lthumb 16.6408 7.17308
rfemur 16.8148 7.20567 31.6189
rtibia -2.54444e-014
rfoot -11.5421 -0.0895874
rtoes -14.7799
lfemur -40.617 2.64317 -6.66111
ltibia 19.5867
lfoot -14.6466 14.207
ltoes -14.315
29
root 7.86565 15.7568 -32.8137 7.64245 -7.55784 -7.37374
lowerback -7.76179 1.81481 4.18401
upperback -1.25534 1.94859 3.33358
thorax 3.07482 0.995535 1.30307
lowerneck -19.6251 -4.96134 -10.8734
upperneck 15.4848 -6.52853 13.9069
head 8.93089 -2.31632 5.71228
rclavicle -1.69464e-014 -1.51076e-014
rhumerus -43.6825 19.7512 -92.3721
rradius 61.7785
rwrist -31.2041
rhand -30.0403 -31.0598
rfingers 7.12502
rthumb -3.35642 -61.0131
lclavicle -1.69464e-014 -1.51076e-014
lhumerus -42.7405 -9.32129 90.9495
lradius 26.9523
lwrist 4.60946
lhand -9.48879 -22.14
lfingers 7.12502
lthumb 16.4759 7.18039
rfemur 16.9643 7.1741 31.5656
rtibia -7.31528e-014
rfoot -8.85313 0.565575
rtoes -55.5312
lfemur -40.6058 3.30309 -7.19562
ltibia 20.2103
lfoot -13.6412 13.7936
ltoes -14.9885
30
root 7.89808 15.7502 -32.6519 7.51924 -7.79791 -7.19806
lowerback -7.77071 1.68944 3.96254
upperback -1.16892 1.79433 3.36219
thorax 3.16043 0.917806 1.44242
lowerneck -20.1561 -4.6434 -11.3204
upperneck 16.113 -6.07732 14.4094
head 9.21095 -2.05604 6.05993
rclavicle 2.6429e-014 5.38706e-014
rhumerus -43.8776 20.0788 -92.6299
rradius 61.6121
rwrist -30.6058
rhand -30.2508 -31.5477
rfingers 7.12502
rthumb -3.55964 -61.4977
lclavicle 2.6429e-014 5.38706e-014
lhumerus -42.8736 -8.72646 90.7905
lradius 26.6655
lwrist 4.14811
lhand -9.74015 -22.8723
lfingers 7.12502
lthumb 16.2339 6.46807
rfemur 17.5277 7.16422 31.1863
rtibia -2.54444e-014
rfoot -12.5631 -0.280741
rtoes -42.8341
lfemur -40.5171 3.9878 -7.96179
ltibia 21.0838
lfoot -12.8039 13.1422
ltoes -14.803
31
root 7.92992 15.7415 -32.4889 7.54831 -7.90581 -7.15011
lowerback -8.07782 1.59696 3.93508
upperback -1.02375 1.64292 3.43778
thorax 3.47905 0.845287 1.53362
lowerneck -20.5044 -4.53904 -11.784
upperneck 16.3277 -5.86782 14.8155
head 9.34669 -1.93175 6.33106
rclavicle -1.70582e-014 2.78299e-015
rhumerus -43.8481 20.5528 -92.7472
rradius 61.2729
rwrist -30.2909
rhand -30.557 -31.2266
rfingers 7.12502
rthumb -3.85534 -61.1715
lclavicle -1.70582e-014 2.78299e-015
lhumerus -42.8387 -8.2418 90.7684
lradius 26.3584
lwrist 3.53399
lhand -10.3578 -24.6384
lfingers 7.12502
lthumb 15.6391 4.74951
rfemur 18.0699 7.07461 30.918
rtibia 1.59028e-014
rfoot -13.7325 -0.562105
rtoes -35.8603
lfemur -40.6278 4.41042 -8.41112
ltibia 22.0746
lfoot -12.2596 12.4536
ltoes -13.7252
32
root 7.9567 15.7293 -32.3229 7.60265 -7.93959 -7.32385
lowerback -8.29495 1.5605 4.01713
upperback -0.981349 1.56476 3.57078
thorax 3.64286 0.808179 1.62539
lowerneck -20.553 -4.52807 -11.8326
upperneck 16.2629 -5.82286 14.8054
head 9.32736 -1.91379 6.34034
rclavicle 2.80535e-014 1.19271e-014
rhumerus -44.003 20.7883 -92.9071
rradius 60.9938
rwrist -30.1264
rhand -30.1647 -30.8714
rfingers 7.12502
rthumb -3.47655 -60.8228
lclavicle 2.80535e-014 1.19271e-014
lhumerus -42.9256 -8.26034 90.9601
lradius 26.0293
lwrist 3.13755
lhand -11.5819 -26.6524
lfingers 7.12502
lthumb 14.4599 2.82383
rfemur 18.6173 6.9311 30.9264
rtibia 9.54166e-015
rfoot -11.5337 -0.60355
rtoes -33.2854
lfemur -40.8369 4.80974 -8.53285
ltibia 23.1224
lfoot -11.1383 11.6712
ltoes -12.5122
33
root 7.98375 15.7149 -32.154 7.56572 -8.23765 -7.409
lowerback -8.26011 1.60924 3.91983
upperback -1.03267 1.63827 3.69823
thorax 3.56376 0.841522 1.81845
lowerneck -20.5383 -4.52561 -11.6861
upperneck 16.3125 -5.8044 14.5044
head 9.32228 -1.92669 6.20754
rclavicle 2.50966e-014 6.87795e-014
rhumerus -44.388 20.8118 -93.0652
rradius 60.7486
rwrist -29.8985
rhand -29.8628 -31.0506
rfingers 7.12502
rthumb -3.18498 -61.0066
lclavicle 2.50966e-014 6.87795e-014
lhumerus -43.1467 -8.34498 91.2351
lradius 25.6138
lwrist 2.96108
lhand -11.3148 -26.0925
lfingers 7.12502
lthumb 14.7172 3.36506
rfemur 19.2561 7.02801 30.7908
rtibia 3.18055e-015
rfoot -10.3002 -0.476702
rtoes -31.2301
lfemur -41.0029 5.48954 -8.78898
ltibia 24.1735
lfoot -8.76984 11.3006
ltoes -14.7896
